<svg id="visual" viewBox="0 0 960 90" width="960" height="90" xmlns="http://www.w3.org/2000/svg" xmlns:xlink="http://www.w3.org/1999/xlink" version="1.1"><rect x="0" y="0" width="960" height="90" fill="#00001E"></rect><path d="M0 22L14.5 23.2C29 24.3 58 26.7 87.2 26.8C116.3 27 145.7 25 174.8 24.2C204 23.3 233 23.7 262 26.2C291 28.7 320 33.3 349 33.2C378 33 407 28 436.2 27.2C465.3 26.3 494.7 29.7 523.8 31.2C553 32.7 582 32.3 611 32.5C640 32.7 669 33.3 698 32.2C727 31 756 28 785.2 25.5C814.3 23 843.7 21 872.8 20C902 19 931 19 945.5 19L960 19L960 91L945.5 91C931 91 902 91 872.8 91C843.7 91 814.3 91 785.2 91C756 91 727 91 698 91C669 91 640 91 611 91C582 91 553 91 523.8 91C494.7 91 465.3 91 436.2 91C407 91 378 91 349 91C320 91 291 91 262 91C233 91 204 91 174.8 91C145.7 91 116.3 91 87.2 91C58 91 29 91 14.5 91L0 91Z" fill="#309c3f"></path><path d="M0 51L14.5 48.5C29 46 58 41 87.2 38C116.3 35 145.7 34 174.8 35C204 36 233 39 262 41.2C291 43.3 320 44.7 349 44.7C378 44.7 407 43.3 436.2 41.3C465.3 39.3 494.7 36.7 523.8 38C553 39.3 582 44.7 611 44C640 43.3 669 36.7 698 36.3C727 36 756 42 785.2 43.8C814.3 45.7 843.7 43.3 872.8 41.5C902 39.7 931 38.3 945.5 37.7L960 37L960 91L945.5 91C931 91 902 91 872.8 91C843.7 91 814.3 91 785.2 91C756 91 727 91 698 91C669 91 640 91 611 91C582 91 553 91 523.8 91C494.7 91 465.3 91 436.2 91C407 91 378 91 349 91C320 91 291 91 262 91C233 91 204 91 174.8 91C145.7 91 116.3 91 87.2 91C58 91 29 91 14.5 91L0 91Z" fill="#31a741"></path><path d="M0 55L14.5 54.3C29 53.7 58 52.3 87.2 50.3C116.3 48.3 145.7 45.7 174.8 44.7C204 43.7 233 44.3 262 45.8C291 47.3 320 49.7 349 50C378 50.3 407 48.7 436.2 47.7C465.3 46.7 494.7 46.3 523.8 45.8C553 45.3 582 44.7 611 45.8C640 47 669 50 698 52.5C727 55 756 57 785.2 55.8C814.3 54.7 843.7 50.3 872.8 47.7C902 45 931 44 945.5 43.5L960 43L960 91L945.5 91C931 91 902 91 872.8 91C843.7 91 814.3 91 785.2 91C756 91 727 91 698 91C669 91 640 91 611 91C582 91 553 91 523.8 91C494.7 91 465.3 91 436.2 91C407 91 378 91 349 91C320 91 291 91 262 91C233 91 204 91 174.8 91C145.7 91 116.3 91 87.2 91C58 91 29 91 14.5 91L0 91Z" fill="#31b243"></path><path d="M0 62L14.5 62.3C29 62.7 58 63.3 87.2 62.8C116.3 62.3 145.7 60.7 174.8 61.2C204 61.7 233 64.3 262 64.3C291 64.3 320 61.7 349 61C378 60.3 407 61.7 436.2 63.2C465.3 64.7 494.7 66.3 523.8 66.5C553 66.7 582 65.3 611 64.8C640 64.3 669 64.7 698 64C727 63.3 756 61.7 785.2 60.8C814.3 60 843.7 60 872.8 60C902 60 931 60 945.5 60L960 60L960 91L945.5 91C931 91 902 91 872.8 91C843.7 91 814.3 91 785.2 91C756 91 727 91 698 91C669 91 640 91 611 91C582 91 553 91 523.8 91C494.7 91 465.3 91 436.2 91C407 91 378 91 349 91C320 91 291 91 262 91C233 91 204 91 174.8 91C145.7 91 116.3 91 87.2 91C58 91 29 91 14.5 91L0 91Z" fill="#31bd45"></path><path d="M0 78L14.5 77.7C29 77.3 58 76.7 87.2 76.8C116.3 77 145.7 78 174.8 77C204 76 233 73 262 72.3C291 71.7 320 73.3 349 73.8C378 74.3 407 73.7 436.2 74.3C465.3 75 494.7 77 523.8 77.8C553 78.7 582 78.3 611 76.7C640 75 669 72 698 71.2C727 70.3 756 71.7 785.2 73.5C814.3 75.3 843.7 77.7 872.8 77.8C902 78 931 76 945.5 75L960 74L960 91L945.5 91C931 91 902 91 872.8 91C843.7 91 814.3 91 785.2 91C756 91 727 91 698 91C669 91 640 91 611 91C582 91 553 91 523.8 91C494.7 91 465.3 91 436.2 91C407 91 378 91 349 91C320 91 291 91 262 91C233 91 204 91 174.8 91C145.7 91 116.3 91 87.2 91C58 91 29 91 14.5 91L0 91Z" fill="#32c846"></path></svg>