<?xml version="1.0" encoding="UTF-8"?>
<svg version="1.1" xmlns="http://www.w3.org/2000/svg" width="1080" height="368">
<path d="M0 0 C356.4 0 712.8 0 1080 0 C1080 121.44 1080 242.88 1080 368 C723.6 368 367.2 368 0 368 C0 246.56 0 125.12 0 0 Z " fill="#1481C7" transform="translate(0,0)"/>
<path d="M0 0 C356.4 0 712.8 0 1080 0 C1080 35.31 1080 70.62 1080 107 C1072.04430908 107.02505615 1064.08861816 107.0501123 1055.8918457 107.07592773 C1029.76585579 107.15861002 1003.63987566 107.24409106 977.51389988 107.33111694 C973.3845108 107.34486959 969.25512163 107.3585992 965.12573242 107.37231445 C963.89375142 107.37640691 963.89375142 107.37640691 962.63688191 107.38058204 C951.29692014 107.41820461 939.95695509 107.4546133 928.616986 107.48995684 C859.85159448 107.70430624 791.08691634 107.96310174 722.32277615 108.44066667 C717.7867689 108.47216034 713.25075827 108.5030652 708.71474305 108.53338861 C667.83384726 108.80690221 626.95511714 109.08868081 586.09716797 110.59179688 C585.26891447 110.62190605 584.44066097 110.65201523 583.58730888 110.6830368 C550.9523112 111.87579639 518.32039393 113.15124169 485.69010925 114.46600342 C454.78592312 115.71087057 423.8803153 116.88963195 392.96756363 117.90234375 C390.2647282 117.99128835 387.56196963 118.08225004 384.85922241 118.17382812 C352.98819393 119.24062662 321.09756761 119.27839659 289.21212274 119.45861417 C280.32587229 119.50923248 271.43966945 119.56691048 262.5534668 119.62524414 C261.74500954 119.63054536 260.93655229 119.63584657 260.10359633 119.64130843 C256.03024712 119.66804165 251.95689863 119.69488101 247.88355064 119.72179985 C243.83300766 119.74855399 239.78246296 119.77503665 235.73191768 119.80144006 C208.2585047 119.98063313 180.78520601 120.16827899 153.3125 120.4375 C151.87510908 120.45146379 151.87510908 120.45146379 150.40867996 120.46570969 C121.4298857 120.75069555 92.46800158 121.32424965 63.50512695 122.33959961 C42.29448568 123.05403343 21.26964662 123 0 123 C0 82.41 0 41.82 0 0 Z " fill="#1369A7" transform="translate(0,0)"/>
<path d="M0 0 C3.92234964 -0.00026815 7.84467727 -0.00700331 11.76702118 -0.01379013 C46.68152138 -0.05462228 81.42104039 1.11561605 116.27519989 3.11697769 C214.5258679 8.73688065 312.61796168 8.66132718 410.94896698 5.25290298 C418.30304151 4.9988505 425.65717159 4.74658035 433.01146698 4.49899673 C433.82086983 4.47161045 434.63027267 4.44422417 435.46420288 4.416008 C468.5309356 3.30736927 501.60383161 3.30039828 534.68529177 3.31102133 C536.89805031 3.31149924 539.11080789 3.31134471 541.32356644 3.31096649 C582.66553097 3.30407411 623.98958366 3.5631473 665.32396698 4.43649673 C666.90632267 4.46921865 666.90632267 4.46921865 668.52064514 4.50260162 C674.49028018 4.62635619 680.4596897 4.75687595 686.42890358 4.89956665 C688.20576416 4.94193023 689.98265419 4.98307899 691.75957298 5.02292633 C694.15009091 5.07760543 696.54035249 5.13860955 698.93065643 5.20187759 C699.62806883 5.21698285 700.32548122 5.23208811 701.04402733 5.2476511 C705.7817379 5.38413219 705.7817379 5.38413219 708.01146698 6.49899673 C708.01146698 40.81899673 708.01146698 75.13899673 708.01146698 110.49899673 C351.61146698 110.49899673 -4.78853302 110.49899673 -371.98853302 110.49899673 C-371.98853302 76.50899673 -371.98853302 42.51899673 -371.98853302 7.49899673 C-361.54207854 7.49899673 -351.15203677 7.51500181 -340.71929169 7.84207535 C-317.87215137 8.53872853 -295.03283824 8.74412765 -272.17603302 8.74899673 C-271.21122387 8.74943859 -270.24641472 8.74988045 -269.25236893 8.75033569 C-242.16532318 8.75677482 -215.11529516 8.45616338 -188.05103302 7.31149673 C-187.31112751 7.28041195 -186.571222 7.24932716 -185.80889511 7.21730042 C-168.24725721 6.47320124 -150.70468971 5.5059359 -133.16496086 4.35864067 C-88.76431247 1.46484421 -44.4916098 0.00172919 0 0 Z " fill="#1369A7" transform="translate(371.98853302001953,257.50100326538086)"/>
<path d="M0 0 C356.4 0 712.8 0 1080 0 C1080 14.85 1080 29.7 1080 45 C1072.9143457 45.33209473 1072.9143457 45.33209473 1065.68554688 45.67089844 C1049.78804677 46.41672942 1033.89080966 47.16805832 1017.99369049 47.92196274 C1008.38865553 48.37734523 998.783547 48.83103278 989.17822266 49.28027344 C943.43588096 51.4207184 897.72608527 53.77919715 852.03287506 56.80057526 C847.68100477 57.08672968 843.32862933 57.3646207 838.97607422 57.64013672 C838.25340394 57.68589561 837.53073366 57.73165449 836.78616428 57.77880001 C836.09524158 57.82252522 835.40431887 57.86625044 834.69245911 57.91130066 C830.98177734 58.14622432 827.27125571 58.38350134 823.56079102 58.62182617 C802.80861089 59.95356166 782.05508288 61.26226764 761.29678345 62.49533081 C759.19695147 62.62009508 757.09715658 62.74548577 754.99740601 62.87161255 C749.25457294 63.21573396 743.51122132 63.5450686 737.76626587 63.85183716 C735.96027674 63.94856701 734.1544194 64.04779914 732.34872437 64.14987183 C713.17574909 65.21374664 693.99225297 65.18745309 674.79614258 65.18530273 C671.07669167 65.18522185 667.35736493 65.19211991 663.63793945 65.20581055 C622.14824754 65.35496602 581.74757283 62.24798948 540.51934814 57.59136963 C529.91923967 56.39615931 519.31694897 55.22031144 508.71484375 54.04296875 C507.56189631 53.91477312 506.40894886 53.78657749 505.22106361 53.65449715 C488.0853441 51.75150814 470.94290339 49.92745479 453.7890625 48.1953125 C452.77520414 48.09176641 451.76134579 47.98822033 450.71676445 47.88153648 C382.64017726 40.94860826 316.38709129 45.34180222 248.58639336 53.23476887 C238.40792168 54.41913662 228.22732749 55.58510751 218.04670715 56.75083923 C217.25634032 56.84134206 216.46597349 56.93184488 215.65165615 57.02509022 C214.06597481 57.20665113 212.48028974 57.38817938 210.89460087 57.56967449 C206.27882971 58.09834771 201.66347354 58.63046814 197.04846859 59.1657877 C194.16676139 59.49972936 191.28483521 59.83175463 188.40286827 60.16344643 C186.44732243 60.38918704 184.49206419 60.6174149 182.53681946 60.8457489 C168.13842448 62.49924247 153.94054304 63.19102053 139.4609375 63.2734375 C138.06226566 63.28270043 138.06226566 63.28270043 136.63533783 63.2921505 C129.54858071 63.33756503 122.46187991 63.36008796 115.375 63.375 C114.33795677 63.37774303 113.30091354 63.38048607 112.23244476 63.38331223 C74.59718502 63.47322183 37.31475388 62.33067913 0 57 C0 38.19 0 19.38 0 0 Z " fill="#0F5388" transform="translate(0,0)"/>
<path d="M0 0 C0 24.42 0 48.84 0 74 C-356.4 74 -712.8 74 -1080 74 C-1080 56.18 -1080 38.36 -1080 20 C-1051.09040784 17.68723263 -1051.09040784 17.68723263 -1040.85546875 17.3671875 C-1039.6338353 17.32544403 -1038.41220184 17.28370056 -1037.15354919 17.24069214 C-1033.16511467 17.10936497 -1029.17642757 16.99004106 -1025.1875 16.875 C-1024.487033 16.85431961 -1023.78656601 16.83363922 -1023.06487274 16.81233215 C-957.71380716 14.88814668 -892.32963926 15.70280342 -827 18 C-826.26879944 18.02553955 -825.53759888 18.0510791 -824.78424072 18.07739258 C-820.43569065 18.22968913 -816.08732964 18.38642861 -811.73913574 18.54858398 C-809.83882414 18.61936372 -807.93845718 18.68865262 -806.03808594 18.7578125 C-781.0628433 19.72065072 -756.12523823 21.15958958 -731.20236802 23.0365262 C-729.07996852 23.19596282 -726.9574623 23.35390474 -724.83492088 23.51144028 C-700.30650539 25.3327151 -675.78725679 27.26729759 -651.26953125 29.2265625 C-649.52042132 29.36623823 -647.77131077 29.50590636 -646.02219963 29.64556694 C-630.03441618 30.92240552 -614.04677215 32.20094304 -598.06030273 33.49414062 C-538.5565397 38.30446346 -479.31492551 42.56807048 -419.5715332 42.3225708 C-415.11410681 42.309056 -410.65677863 42.31444032 -406.19934082 42.31941605 C-364.02761545 42.35531199 -322.10040777 40.46385478 -280.0546875 37.31445312 C-276.62940369 37.06043743 -273.2034543 36.81609446 -269.7774992 36.57132912 C-246.45399112 34.8987823 -223.22763439 32.68954616 -200 30 C-198.36185333 29.81241119 -198.36185333 29.81241119 -196.69061279 29.62103271 C-190.51774564 28.91157358 -184.35091743 28.16223476 -178.1875 27.375 C-177.25030121 27.25572144 -176.31310242 27.13644287 -175.34750366 27.0135498 C-130.77678534 21.29610855 -86.42919555 13.67715776 -42.12109375 6.2265625 C-41.01278702 6.04037354 -39.90448029 5.85418457 -38.7625885 5.66235352 C-33.30207273 4.74090713 -27.84604955 3.79932557 -22.39501953 2.82324219 C-20.81793968 2.54243301 -20.81793968 2.54243301 -19.20899963 2.25595093 C-17.24099437 1.9041489 -15.27375269 1.54803531 -13.30747986 1.18667603 C-12.43136551 1.03016571 -11.55525116 0.8736554 -10.65258789 0.71240234 C-9.89506729 0.57426117 -9.13754669 0.43612 -8.35707092 0.29379272 C-5.59106318 -0.05097117 -2.78741116 0 0 0 Z " fill="#0F5388" transform="translate(1080,294)"/>
<path d="M0 0 C0 14.19 0 28.38 0 43 C-5.65253906 42.855625 -11.30507812 42.71125 -17.12890625 42.5625 C-66.95808466 41.35347641 -116.78205999 40.71309905 -166.625 40.6875 C-167.33236313 40.6871118 -168.03972627 40.6867236 -168.76852465 40.68632364 C-232.32773996 40.65754211 -295.91848786 41.63375339 -359.42037964 44.44882202 C-382.13627977 45.42996588 -404.8925335 45.2900625 -427.625 45.3125 C-429.45257654 45.31488867 -429.45257654 45.31488867 -431.31707382 45.31732559 C-467.51902725 45.357328 -503.64488018 44.78448144 -539.8125 43.1875 C-540.75831184 43.14583836 -541.70412369 43.10417671 -542.6785965 43.06125259 C-560.18665937 42.28418195 -577.69102582 41.43022458 -595.18686104 40.41322422 C-629.63463027 38.41664222 -663.95767042 37.51800096 -698.46313477 37.60888672 C-705.01733086 37.62602161 -711.57116227 37.61575172 -718.12534618 37.59856224 C-749.73293073 37.52846563 -781.14560212 38.39804658 -812.6878643 40.41723251 C-823.18445803 41.08732413 -833.68595662 41.6235575 -844.19140625 42.1328125 C-845.91993087 42.21754111 -847.64845163 42.30234867 -849.37696838 42.38723755 C-852.75622089 42.55278014 -856.13553099 42.71707102 -859.51489258 42.88037109 C-862.92481408 43.04523514 -866.33463618 43.21196868 -869.74438477 43.38037109 C-880.45274044 43.90912168 -891.16164824 44.42210106 -901.8722229 44.90398407 C-903.85220662 44.99333082 -905.83211263 45.08439522 -907.81201172 45.17559814 C-929.03780587 46.12885457 -950.25470753 46.15514035 -971.49755859 46.13037109 C-976.36510464 46.12471421 -981.23259551 46.12804199 -986.10013962 46.13380814 C-1005.48089392 46.153287 -1024.85145902 46.04957296 -1044.2265625 45.5546875 C-1045.00566357 45.53527225 -1045.78476463 45.51585701 -1046.58747482 45.49585342 C-1057.7404991 45.21004169 -1068.86248933 44.65693184 -1080 44 C-1080 33.11 -1080 22.22 -1080 11 C-1053.62502612 10.91058865 -1027.25010609 10.84552986 -1000.875 10.8125 C-999.89531864 10.81126334 -998.91563727 10.81002667 -997.9062686 10.80875254 C-947.35482749 10.74758638 -896.84342276 10.85621424 -846.3125 12.4375 C-844.65371637 12.48892151 -844.65371637 12.48892151 -842.96142197 12.54138184 C-833.49190997 12.83564454 -824.02271524 13.13907204 -814.55397034 13.45709229 C-746.82219947 15.73112792 -679.63649904 14.07085433 -612 10 C-610.06710114 9.88368225 -610.06710114 9.88368225 -608.09515381 9.76501465 C-592.99592564 8.85463997 -577.89813847 7.9212931 -562.80078125 6.98046875 C-549.23469762 6.13510209 -535.66766638 5.30705272 -522.09902954 4.50366211 C-520.00261356 4.3793595 -517.90623665 4.25439561 -515.80990601 4.12866211 C-456.15417091 0.55336296 -396.43709585 0.59952422 -336.69921875 1.2265625 C-335.66681879 1.23737917 -334.63441883 1.24819584 -333.57073402 1.25934029 C-330.35859757 1.29304431 -327.14646186 1.32681912 -323.93432617 1.3605957 C-274.47684381 1.88035445 -225.02257217 2.1616817 -175.5625 2.1875 C-174.76978604 2.18794437 -173.97707209 2.18838875 -173.16033649 2.18884659 C-127.65050568 2.21251264 -82.18478303 1.8950969 -36.69795227 0.30708313 C-24.46094885 -0.0984316 -12.24321664 -0.06934211 0 0 Z " fill="#1575B7" transform="translate(1080,221)"/>
<path d="M0 0 C11.38175688 0.00812962 22.7635129 0.01346074 34.14527208 0.0170958 C34.96549579 0.01735853 35.78571951 0.01762125 36.6307985 0.01789194 C40.75206748 0.01919846 44.87333648 0.02046181 48.99460548 0.02170384 C82.33625521 0.03180629 115.677896 0.04947149 149.01953965 0.07202744 C149.01953965 12.61202744 149.01953965 25.15202744 149.01953965 38.07202744 C146.10516764 39.04348478 143.77622802 39.34937221 140.72779161 39.59692979 C139.63085984 39.68737565 138.53392808 39.77782151 137.40375596 39.87100816 C135.59901811 40.01305177 135.59901811 40.01305177 133.7578209 40.15796494 C131.859908 40.31028077 131.859908 40.31028077 129.92365342 40.46567369 C125.72702735 40.80036372 121.52958092 41.12405418 117.33203965 41.44702744 C116.25669528 41.53039102 116.25669528 41.53039102 115.15962678 41.6154387 C83.63150084 44.05886336 52.0904912 45.66553702 20.49421006 46.93265367 C17.0720584 47.06992085 13.65005131 47.21046681 10.22803575 47.35108018 C-65.32675505 50.40858412 -141.00885069 50.01538175 -216.44609755 44.65561509 C-226.57647463 43.94421035 -236.71463638 43.38130635 -246.85402602 42.81592393 C-265.21367939 41.79164472 -283.56095708 40.64722167 -301.90596694 39.38785386 C-371.65505966 34.61171677 -441.42747029 30.90624898 -511.35546035 30.88452744 C-512.19124869 30.8839383 -513.02703704 30.88334916 -513.8881523 30.88274217 C-550.13346671 30.86075586 -586.25485488 31.79598209 -622.43210906 34.03956437 C-625.03851723 34.20061479 -627.64507081 34.35910892 -630.25167006 34.51703477 C-662.70821826 36.48824167 -695.12722635 38.90233117 -727.54785174 41.38707471 C-795.23671641 46.57350253 -863.06727599 50.44112084 -930.98046035 50.07202744 C-930.98046035 38.85202744 -930.98046035 27.63202744 -930.98046035 16.07202744 C-827.09550812 12.92767368 -827.09550812 12.92767368 -775.16796035 12.44702744 C-774.24153479 12.43834641 -773.31510924 12.42966538 -772.36061019 12.42072129 C-748.5894057 12.20075701 -724.81756585 12.06947827 -701.04577178 11.93254507 C-684.39898019 11.83664822 -667.75220498 11.73828192 -651.10546035 11.63452744 C-650.31258714 11.62959086 -649.51971394 11.62465428 -648.70281428 11.61956811 C-601.11148514 11.32216522 -553.54092204 10.95258741 -505.98046035 9.07202744 C-505.29747123 9.04502511 -504.6144821 9.01802278 -503.91079634 8.99020219 C-487.99417657 8.35893034 -472.08020789 7.66974005 -456.16696852 6.95888162 C-423.56623244 5.50341253 -390.95715401 4.27696875 -358.34339064 3.1538527 C-355.43384234 3.05309876 -352.52436825 2.95031829 -349.61491317 2.84691072 C-305.62177418 1.30846277 -261.62167426 0.83680946 -217.60518327 0.53670344 C-215.33472532 0.52110373 -213.06426993 0.5051735 -210.79381508 0.48912954 C-140.5291584 -0.00725328 -70.26608706 -0.05077362 0 0 Z " fill="#1575B7" transform="translate(930.9804603457451,106.92797255516052)"/>
<path d="M0 0 C0.87544464 0.00093658 1.75088928 0.00187317 2.65286255 0.00283813 C30.09378954 0.06532771 57.30496556 1.59499136 84.6015625 4.3828125 C85.66186235 4.48987833 86.72216221 4.59694416 87.81459236 4.70725441 C105.06318391 6.44925348 122.29728123 8.31466702 139.52734375 10.23046875 C140.68443533 10.35896147 141.84152691 10.48745419 143.03368187 10.61984062 C153.66381748 11.80071303 164.29368061 12.98392706 174.92163086 14.18432617 C215.14882857 18.72202568 254.66822281 21.58832874 295.14762115 21.50535583 C297.92936845 21.49989324 300.71110717 21.49754075 303.49285889 21.4954834 C333.23674493 21.46131052 362.81479432 20.60638121 392.50097656 18.65820312 C399.85941072 18.17762151 407.22036945 17.7494069 414.58239937 17.32845306 C437.99221921 15.98940407 461.4014422 14.64515196 484.78256226 12.86529541 C515.77733192 10.51273437 546.83899269 9.15685004 577.88289642 7.62902832 C585.28642062 7.26409702 592.68963675 6.89321107 600.09277344 6.52050781 C610.56396448 5.99336018 621.03534842 5.47025735 631.50697422 4.95181465 C637.22517165 4.66868438 642.9432889 4.38414071 648.66122437 4.09576416 C654.07991349 3.82269344 659.49884002 3.55488716 664.91797256 3.29076767 C666.90920949 3.19289514 668.90036276 3.09330092 670.89141464 2.99173355 C684.21019095 2.31380655 697.47669754 2.07070263 710.8125 2.1875 C710.8125 7.4675 710.8125 12.7475 710.8125 18.1875 C704.86527795 18.43553353 698.91798678 18.68183537 692.97064209 18.9269104 C690.7657512 19.01796959 688.56087669 19.1094263 686.35601807 19.20126343 C674.00956497 19.71506075 661.66376405 20.20672555 649.3125 20.58984375 C609.08755875 21.86049184 568.95440726 24.36009591 528.8125 27.1875 C528.03118462 27.24251427 527.24986923 27.29752853 526.44487762 27.3542099 C483.02840099 30.42090087 439.7767454 34.66089541 396.50830078 39.35620117 C370.28287261 42.20065378 344.04925795 44.91594692 317.79009247 47.43125153 C315.18457085 47.68177227 312.57933883 47.93510716 309.97418213 48.18939209 C298.92648755 49.26558789 287.87505156 50.27599963 276.8125 51.1875 C276.13304447 51.24422756 275.45358894 51.30095512 274.75354385 51.3594017 C245.4074823 53.78559117 215.97605385 53.52965211 186.55198866 53.50118196 C181.76384861 53.49772491 176.97585447 53.50723405 172.18774414 53.52368164 C140.91402562 53.62848564 109.86577275 53.182864 78.6892395 50.5831604 C71.64750187 50.00143714 64.59733079 49.54915737 57.54705238 49.08535194 C50.52996019 48.61938005 43.51503867 48.1207653 36.5 47.625 C35.66254997 47.56587685 34.82509995 47.50675369 33.96227264 47.44583893 C-3.0332465 44.82592786 -39.96402836 41.53540382 -76.89226246 38.10461521 C-100.74683752 35.88865191 -124.60161712 33.7776098 -148.4921875 31.984375 C-149.56431866 31.90381741 -150.63644981 31.82325981 -151.74106979 31.74026108 C-171.37740256 30.2723022 -191.02544117 28.85346127 -210.69140625 27.84375 C-211.75847305 27.78876343 -212.82553986 27.73377686 -213.92494202 27.67712402 C-265.63511654 25.09001817 -317.42465149 24.67543036 -369.1875 24.1875 C-369.1875 20.8875 -369.1875 17.5875 -369.1875 14.1875 C-360.1575748 14.592754 -351.18063028 15.12490124 -342.19921875 16.16015625 C-314.58910739 19.21973768 -287.05912207 19.63714661 -259.30807877 19.68058395 C-256.30293733 19.68738028 -253.2979196 19.70174444 -250.29281616 19.7180481 C-223.88132364 19.84394944 -197.97194824 18.57876025 -171.74197769 15.48788452 C-169.16092712 15.18437526 -166.57928214 14.88648674 -163.99740601 14.59008789 C-154.34304637 13.47959309 -144.69350749 12.33174364 -135.04620457 11.16164303 C-81.96750281 4.72474735 -81.96750281 4.72474735 -57.0625 2.625 C-56.19033844 2.55095947 -55.31817688 2.47691895 -54.41958618 2.40063477 C-36.29038338 0.8848481 -18.19434394 -0.02573146 0 0 Z " fill="#115E97" transform="translate(369.1875,42.8125)"/>
<path d="M0 0 C0 3.63 0 7.26 0 11 C-55.55444736 20.63263048 -111.14764263 30.24437722 -167 38 C-168.14430481 38.15921936 -169.28860962 38.31843872 -170.46759033 38.48248291 C-226.01067227 46.15982396 -282.02773811 50.01140099 -338 53 C-339.04686981 53.05842072 -340.09373962 53.11684143 -341.17233276 53.17703247 C-363.46149802 54.38732804 -385.80385565 54.22216757 -408.1184082 54.24023438 C-412.69238503 54.24456389 -417.26616734 54.25826173 -421.84008789 54.28125 C-483.90361092 54.58481505 -545.46071247 49.75360548 -607.2737872 44.77473748 C-618.07401661 43.90491542 -628.87485601 43.04277343 -639.67578125 42.18164062 C-640.63767341 42.10494644 -641.59956557 42.02825226 -642.59060597 41.94923401 C-648.34586103 41.49041506 -654.10114371 41.03194387 -659.85644579 40.57371521 C-662.68702387 40.34831627 -665.51759026 40.12277095 -668.34815598 39.8972168 C-730.18558923 34.84705992 -730.18558923 34.84705992 -792.125 31.375 C-793.49147351 31.31679299 -794.85793853 31.25838654 -796.22439575 31.19979858 C-877.74179664 27.72118773 -959.30197771 26.57876526 -1080 31 C-1080 26.05 -1080 21.1 -1080 16 C-1066.02014054 14.84541339 -1052.01768921 14.38336465 -1038 13.9375 C-1037.3083651 13.91542984 -1036.61673019 13.89335968 -1035.90413666 13.87062073 C-1008.98018458 13.022061 -982.06059182 12.777553 -955.12426758 12.75368118 C-952.19464797 12.75008548 -949.2650591 12.74281765 -946.33544922 12.73458862 C-894.82836941 12.60825101 -843.49764889 15.46028914 -792.10694933 18.5940268 C-784.65454505 19.04830874 -777.2017916 19.49672617 -769.74899364 19.94449615 C-767.53805721 20.07736379 -765.32712967 20.21037813 -763.11620522 20.34344482 C-756.64550346 20.7328701 -750.17478074 21.12193569 -743.70397103 21.50956345 C-740.28424017 21.714455 -736.86452996 21.91968983 -733.44482422 22.125 C-731.5050171 22.24140839 -731.5050171 22.24140839 -729.52602196 22.36016846 C-722.82224398 22.76408981 -716.11978385 23.1824275 -709.41845703 23.625 C-656.87839652 27.04762719 -604.16143264 27.34058957 -551.53084576 27.25713873 C-546.17345193 27.24952959 -540.81613152 27.25238614 -535.45874023 27.26074219 C-500.69850473 27.31348799 -466.02328452 27.10075031 -431.30607224 25.12953186 C-428.40636009 24.9666553 -425.50614211 24.8145411 -422.6058197 24.66299343 C-414.46354052 24.23651371 -406.32536766 23.75290821 -398.1875 23.25 C-396.82171202 23.1667024 -395.45591798 23.08350411 -394.09011841 23.00039673 C-371.02419811 21.59278763 -347.98056098 19.92570174 -324.9375 18.1875 C-231.97697577 11.17675522 -138.91211256 4.7875165 -45.75 1.1875 C-44.9219838 1.15543961 -44.09396759 1.12337921 -43.24085999 1.09034729 C-37.80142697 0.88058964 -32.36175454 0.67827479 -26.921875 0.48046875 C-26.23870712 0.4550746 -25.55553925 0.42968044 -24.85166931 0.40351677 C-16.56195189 0.09778521 -8.29542304 -0.04915865 0 0 Z " fill="#115E97" transform="translate(1080,283)"/>
<path d="M0 0 C258.72 0 517.44 0 784 0 C784 0.33 784 0.66 784 1 C754.69745707 3.12485191 754.69745707 3.12485191 740.14404297 3.65795898 C736.40114931 3.80322436 732.70644622 4.00505862 728.98828125 4.46484375 C720.7247492 5.44868376 712.3700548 5.68772817 704.06274414 6.125 C701.7487298 6.24768565 699.43491603 6.37375138 697.12109375 6.5 C696.42503525 6.53544922 695.72897675 6.57089844 695.01182556 6.60742188 C691.59306022 6.79458421 688.20928199 7.07412569 684.81518555 7.51367188 C681.79795215 7.8982837 678.8705646 8.16629737 675.8359375 8.28125 C674.94132813 8.31863281 674.04671875 8.35601562 673.125 8.39453125 C671.28386562 8.46514294 669.44271964 8.53545292 667.6015625 8.60546875 C666.70953125 8.64285156 665.8175 8.68023437 664.8984375 8.71875 C664.10099121 8.74904297 663.30354492 8.77933594 662.48193359 8.81054688 C659.91231332 8.96953278 659.91231332 8.96953278 657.05102539 9.49291992 C654.10826726 9.98200599 651.26222729 10.23127172 648.28515625 10.39453125 C647.15102295 10.4605957 646.01688965 10.52666016 644.84838867 10.59472656 C642.97437378 10.70252441 642.97437378 10.70252441 641.0625 10.8125 C627.92172987 11.61068276 614.80426424 12.62709252 601.6875 13.75 C600.72642334 13.83221802 599.76534668 13.91443604 598.77514648 13.99914551 C585.74975101 15.11834014 572.72955297 16.29319111 559.7109375 17.48828125 C558.66065904 17.58465693 558.66065904 17.58465693 557.58916283 17.68297958 C555.45193477 17.87910578 553.31471152 18.07528437 551.17749023 18.27148438 C550.11273484 18.36922999 550.11273484 18.36922999 549.02646923 18.46895027 C544.71865281 18.86444084 544.71865281 18.86444084 540.41087723 19.26037598 C521.16044968 21.03065293 501.90992239 22.72923195 482.62329102 24.06274414 C481.20977259 24.16125461 479.79627916 24.26012454 478.3828125 24.359375 C477.34745613 24.43200562 477.34745613 24.43200562 476.29118347 24.50610352 C471.99096096 24.8199925 467.70954338 25.23099104 463.42306519 25.69465637 C448.4111701 27.30819282 433.34293937 28.08352156 418.27301025 28.93328857 C415.26507734 29.10427738 412.25747065 29.28065635 409.24984741 29.45699501 C393.5219376 30.3768324 377.80302847 31.20528816 362.05322266 31.6552887 C361.00312012 31.68710739 359.95301758 31.71892609 358.87109375 31.75170898 C357.97318115 31.776035 357.07526855 31.80036102 356.15014648 31.82542419 C353.59838869 31.96683831 351.11754664 32.21360045 348.58178711 32.50743103 C341.67118549 33.21690313 334.7597175 33.13990498 327.8203125 33.12939453 C326.29526637 33.13073268 324.77022057 33.13249272 323.24517536 33.13463593 C319.08268202 33.13914768 314.92021304 33.13732362 310.75771928 33.13422441 C307.1933429 33.13231286 303.62897154 33.13393368 300.06459528 33.13556135 C290.4112811 33.13993996 280.75798166 33.13698011 271.10466915 33.13056505 C264.02995368 33.12590484 256.95524053 33.12351696 249.88052368 33.12231445 C166.58468242 33.10544027 83.29314926 32.63723572 0 32 C0 21.44 0 10.88 0 0 Z " fill="#00001E" transform="translate(0,0)"/>
<path d="M0 0 C1.02431562 -0.00066278 1.02431562 -0.00066278 2.06932449 -0.00133896 C27.7745424 -0.01002425 53.26222882 1.03740465 78.875 3.25 C81.22916266 3.45024239 83.58332953 3.6504354 85.9375 3.85058594 C129.62213692 7.58803673 129.62213692 7.58803673 144.84448242 9.73413086 C154.62709229 11.04402218 164.48862453 11.81614199 174.3125 12.75 C199.15363155 15.1151405 199.15363155 15.1151405 208.07421875 16.28515625 C268.60871243 24.12472113 330.06355489 24.74401831 391.00716925 24.5226236 C398.29736217 24.49709445 405.58751257 24.49152672 412.87774372 24.4875679 C419.95608369 24.48358185 427.03440522 24.47113597 434.1127317 24.45722103 C436.33857986 24.45316996 438.56442743 24.45022208 440.79027748 24.44742584 C444.92442782 24.44157139 449.05850247 24.42687936 453.19262695 24.41113281 C454.99157158 24.40945602 454.99157158 24.40945602 456.82685852 24.40774536 C463.60016503 24.37373728 470.28847259 24.05306541 477.03781986 23.48383522 C480.25278644 23.21886353 483.45837521 23.07211753 486.68286133 22.98461914 C487.85572693 22.95102798 489.02859253 22.91743683 490.23699951 22.88282776 C492.07841522 22.83448036 492.07841522 22.83448036 493.95703125 22.78515625 C495.97150581 22.72769703 497.98598016 22.67022993 500.00044441 22.61241055 C502.11421323 22.55210177 504.22801466 22.49307427 506.34182739 22.43432617 C534.53287376 21.66056635 534.53287376 21.66056635 562.70385742 20.3734436 C643.34162197 15.91694894 724.01854349 16.03054035 804.66197586 20.1375351 C806.94817316 20.25371863 809.23444217 20.36841285 811.52072144 20.48297119 C831.60248233 21.49362303 851.64606738 22.73074557 871.6875 24.375 C873.97587608 24.55903423 876.26428766 24.74262744 878.55273438 24.92578125 C883.99390374 25.36217698 889.43463172 25.80373344 894.875 26.25 C894.875 26.58 894.875 26.91 894.875 27.25 C552.335 27.25 209.795 27.25 -143.125 27.25 C-143.125 21.64 -143.125 16.03 -143.125 10.25 C-140.5439046 9.38963487 -138.68303153 9.0415678 -136.01635742 8.83276367 C-135.18235413 8.76552094 -134.34835083 8.6982782 -133.48907471 8.6289978 C-132.12356476 8.52453842 -132.12356476 8.52453842 -130.73046875 8.41796875 C-129.29184479 8.3031163 -129.29184479 8.3031163 -127.82415771 8.1859436 C-125.74372716 8.02013388 -123.66316445 7.85597585 -121.58248901 7.69326782 C-116.02834391 7.2588408 -110.47513429 6.81277295 -104.921875 6.3671875 C-103.20997231 6.23021202 -103.20997231 6.23021202 -101.46348572 6.09046936 C-87.77067819 4.98952589 -74.08752109 3.77902677 -60.4050293 2.55737305 C-55.31304666 2.10466919 -50.21961534 1.67193831 -45.125 1.25 C-43.22862793 1.08878662 -43.22862793 1.08878662 -41.29394531 0.92431641 C-27.55448808 -0.09742961 -13.76984394 0.00409451 0 0 Z " fill="#00011F" transform="translate(143.125,340.75)"/>
</svg>
